<mxfile host="app.diagrams.net" modified="2023-08-29T06:03:25.254Z" agent="Mozilla/5.0 (Macintosh; Intel Mac OS X 10_15_7) AppleWebKit/537.36 (KHTML, like Gecko) Chrome/116.0.0.0 Safari/537.36" version="21.6.9" etag="T-TyZd_-OtlEBxZ4D6CS" type="github">
  <diagram name="第 1 页" id="ThDeTTBV11BzUf9z5hys">
    <mxGraphModel>
      <root>
        <mxCell id="0" />
        <mxCell id="1" parent="0" />
      </root>
    </mxGraphModel>
  </diagram>
</mxfile>
